<?xml version="1.0" standalone="no"?><!DOCTYPE svg PUBLIC "-//W3C//DTD SVG 1.1//EN" "http://www.w3.org/Graphics/SVG/1.1/DTD/svg11.dtd"><svg t="1615560764961" class="icon" viewBox="0 0 1024 1024" version="1.1" xmlns="http://www.w3.org/2000/svg" p-id="3459" xmlns:xlink="http://www.w3.org/1999/xlink" width="200" height="200"><defs><style type="text/css"></style></defs><path d="M512 512m-512 0a512 512 0 1 0 1024 0 512 512 0 1 0-1024 0Z" fill="#FF436A" fill-opacity=".104" p-id="3460"></path><path d="M515.157333 294.869333a53.546667 53.546667 0 0 1 53.361778 57.998223l-17.265778 206.791111a38.656 38.656 0 0 1-38.528 35.441777 38.044444 38.044444 0 0 1-37.959111-35.484444l-13.909333-206.677333a54.414222 54.414222 0 0 1 54.300444-58.069334z" fill="#FF436A" p-id="3461"></path><path d="M514.673778 680.874667m-53.617778 0a53.617778 53.617778 0 1 0 107.235556 0 53.617778 53.617778 0 1 0-107.235556 0Z" fill="#FF436A" p-id="3462"></path></svg>